<svg xmlns="http://www.w3.org/2000/svg" width="1354.06" height="1534.6" viewBox="0 0 1354.06 1534.6"><g id="Layer_2" data-name="Layer 2"><g id="Layer_1-2" data-name="Layer 1"><path d="M670.26,872.48a4.59,4.59,0,0,1,.36.41C670.86,872.79,670.7,872.64,670.26,872.48Z" style="fill:#d39f3f"/><path d="M656.23,872.09l1,.83c1,5.51,5.1,13.77,0,17.45-6.54,8.74-22.37,6.88-24.37,18.69-17.07,5.1-10.56,26.16-16,39.41-11,2.65-6.88-10.57-12-15l-2.65,3.24c-17.21-12.81-13.59,14.62-24.09,17.21,11.56,2.65,21.51-4.07,33.32-4.48.82,1.38,3.65,2.24,2.65,4.48h1.82c2.65-2.65,2.86-5.86,2.65-9.54,1-3.65,5.51-5.85,8.75-3.65-1,3.65,1.37,6.54,4.47,8.13l-6.3,8.74c-3.23,3.65.83,13.59-7.71,13.22a2.16,2.16,0,0,1-2.65-2.86h-1.82l4.47,8.12c5.1-.41,4.06-9.53,10.57-10.56,5.85-1.38,6.54-8.33,5.85-13.77,7.71-6.54,17.07-2.65,25.57-3.65,2.24,2.24,7.3,2.86,6.3,6.88,3.24,6.54-2.23,13.77-6.3,19.28,1.83,3.65-2.65,6.54-2.65,10.56-6.88,7.3-14.62,4.07-24.09,6.3,11.56,8.13,24.16,13.22,39.41,12,14.63,1,7.71-17.45,18.24-23.4,6.3-.83,11.57.82,18.69-1,2.86-5.5,3.24-12,4.48-18.24-6.3-2.86-4.06-9.15-4.48-14.21-3.65-4.48-3.23-12.4-10.56-13.22-1.38-4.06,2.85-5.85,2.65-9.54,11-4.06-5.85-10.56,1-17.21-12.39-2.23-15.25-21.92-30.63-15.62-3.65-5.1-13.22-7.3-13.22-15,.85-4.57,9.5-3.79,11.62-3.06-.81-.85-1.83-1.61-1.47-2.83-4.68-.41-10.15,0-13.22,2.41Z" style="fill:#d39f3f"/><path d="M528.56,1129.38h0c0,6.3,8.33,6.54,5.09,14.22-12.39,7.71-27.43,2.24-39.41,11.36-11,5.85-20.1-6.89-26.16-6.3,53.22,45.88,115.76,76.55,187.66,80l4.48,2.65c-2.86-17.46-1.83-38-.83-56.25C610.42,1178,566.15,1157.64,528.56,1129.38Z" style="fill:#d39f3f"/><path d="M762.48,1020c1.83,0,4.06.83,5.1-.82-1-4.07-.83-8.33-4.48-11.36-6.09.2-6.09-7.92-9.29-7.92h-.07C745.62,1011.22,761.45,1010.43,762.48,1020Z" style="fill:#d39f3f"/><path d="M818.07,1083.91a37.53,37.53,0,0,1,8.74-19.27c6.54.83,5.1,9.53,8.13,13.77,19.27-24.37,36.14-47.74,42.68-77.79-9.54-.41-16.45,5.09-26.4,3.65l-.42,0c-10.56-7.92-8.32,7.3-17.45,6.3-3.23-.83-4.06-4.68-4.47-8.12-.83,8.33-7.3,14.63-12,21.13-17.21-4.68-12.39,18.93-29.26,13.77,2.24,6.54,9.54-1,13.22,1,2.86-1.38,2.24-4.47,3.65-6.3,1.82-6.88,10.15-9.53,17.21-6.88,3.65,5.85,4.68,13.22,4.47,20.1-4.06,2.86-4.06,7.71-3.64,12.39-5.1,8.33-2.86,26.16-18.25,24.37-16-5.85-33.52-10.15-51.18-10.57v3.65c11.77,4.48,24.78,4.48,34.32,13.22C797.59,1087.36,810.4,1089.77,818.07,1083.91Z" style="fill:#d39f3f"/><path d="M886,1135.06c37.17-39,60.3-85.5,71.94-135.85C962,982,959.71,962,966.63,947.4c-19.1,1-39.79,2.07-57.69-.82l-.07,0c2.24,7.3-2.24,14.22-1.82,21.93-7.71,12.8,10,16,5.09,28-3.23,2.65-6.54,2.23-10.57.82-9.15,35.73-27,68.64-52.59,97.07h-2.65c6.54,4.06,11.36,13.21,18.69,15v-5.1c1.38-1,2.24-3.64,4.47-2.65C883.71,1106.22,884.74,1125.91,886,1135.06Z" style="fill:#d39f3f"/><path d="M377.81,948.44l1.82,2.65c1.82,26.16,9.16,51.8,11.36,77,3.23-2.24,1-8.12,5.51-8.12,1.37-12.39,3.23-26.61,11.35-37.59,11.57-.41,12-16,24.37-15a48.9,48.9,0,0,1,5.37,4.54c-3.52-7.09-3.28-16.28-.89-23.61A229,229,0,0,1,377.81,948.44Z" style="fill:#d39f3f"/><path d="M455.94,735.31l0,0v0Z" style="fill:#d39f3f"/><path d="M680,721.54c2.86,17.07,2.24,37.17,1,55.07,33.9,2.65,70.08,16.46,94.45,38.55,12.8-13.21,27-30.63,41.23-38.55-40-31.66-84.88-51.39-136.64-55.07Z" style="fill:#d39f3f"/><path d="M470.16,949.45c.49-.09,1-.18,1.51-.29A6.13,6.13,0,0,0,470.16,949.45Z" style="fill:#d39f3f"/><path d="M437.59,971.84a19.79,19.79,0,0,0,2.76,4.2A11.88,11.88,0,0,0,437.59,971.84Z" style="fill:#d39f3f"/><path d="M459.64,987.34a5.5,5.5,0,0,0-.36,1.89C459.42,988.59,459.53,988,459.64,987.34Z" style="fill:#d39f3f"/><path d="M844.54,771.42c4.48,2.23-1.38,11.35,5.51,10.56,5.85,4.68,13.21,10,12,17.45,2.23,13.22,12.8-4.06,18.69,4.48,5.09,4.06-3.65,6.54-2.65,11.36,3.23,1.37,6.29-3.24,8.74.82,1,4.48-2.24,6.3-4.48,8.75-2.23,7.71,6.89,3.23,9.54,6.88,4.06,8.74,7.29,21.92.82,31.67,9.16,10-1.37,20.1-3.23,29.6-6.54,6.3-7.71,20.72-20.1,17.45-2.86,5.09,1.82,11-1,15l21.93,1c-12.39-17.45,3.65-34.31,8.74-49.91,2.65-1,5.85-6.54,8.13-1l-2.65,21.13c5.5,8.33,3.23,20.11,5.09,29.85l56.24-1c-4.06-37.17-11.77-72.9-27.43-105.18-4.06,1.37-8.74,4.47-13.22,1.82-6.3-8.33-11.36-18.69-20.1-25.57-7.3,0-12.39-5.85-18.24-9.54-12.81.42-8.13-18.24-20.52-15.62-6.54-3.24-11.35-6.54-13.21-14.22-.42-8.74-1-19.69-9.54-26.16-4.68-2.65-9.15.83-12.39,3.65-2.31,1.5-4.17,1.63-5.6.93C835.76,743.18,829.15,764.18,844.54,771.42Z" style="fill:#d39f3f"/><path d="M456,735.35V739c-46.29,53-72.28,116.78-77,188.27,18.93.42,39.79-.82,57.69.83l-1.83-2.65c3.65-56.65,24.1-108.08,62.3-148.87A267,267,0,0,1,456,735.35Z" style="fill:#d39f3f"/><path d="M818,706.67c-11-8.74-5.85-25.19-20.72-32.49-24.17-11.57-49.57-18.93-76.42-24.37C707.24,647.4,692.2,647,679,643.27l.07.07c2.86,18.24,1.83,40.2.83,58.1,46.29.83,90.18,15,126.32,42a17.21,17.21,0,0,1-6.92-13.8h1.38c.83-6.54-9.16-9.53-5.85-16,8.74.83,15.25,12.8,20.1,19.28,4.21-.07,7.3.71,9.63,2.1-2.15-1.86-3.07-5.81-3-9C813.91,720.1,822,713.56,818,706.67Z" style="fill:#d39f3f"/><path d="M832.53,1108.73l0,.06v-.09Z" style="fill:#d39f3f"/><path d="M824.57,735a4.51,4.51,0,0,0,1,.65A11.09,11.09,0,0,0,824.57,735Z" style="fill:#d39f3f"/><path d="M853.35,944.75l.08,0h0Z" style="fill:#d39f3f"/><path d="M680,563.69l0,0a324.29,324.29,0,0,1,0,51.8c.41-2.65,2.86-2.65,4.47-3.65,5.08,1.82,5.1,8.07,3.67,12.34,25.78-1.58,50.66,4.83,74.5,12,25.2,3.23,47.16,33.52,71.94,17.45,6.88,7.71,18.93.41,22.54,12.39,9.54,1.82,14.63,11.36,21.14,17.45-.83,8.74,7.29,12.81,10.15,19.28v-1a91.06,91.06,0,0,1,36.14-35.72A362,362,0,0,0,738.7,571.61C719.77,567.75,698.7,569,680,563.69Z" style="fill:#d39f3f"/><path d="M688.1,624.27s0,0,0,0l-1,0Z" style="fill:#d39f3f"/><path d="M871.73,1149.14c-4.68,3.24-10.56,1-13.22-3.24.83-17.18-19-23.93-26-37.11v.73c-27.43,19.28,13.22,20.1,13.77,37-4.06,8.12-18.69,16-9.53,25.57,2.85,3.24-1.38,5.86-2.65,8.75Z" style="fill:#d39f3f"/><path d="M863.16,956.15c-.41,12.8,17.07,17.21,18.24,29.84,3.65-12,3.24-25.57,6.89-37.59-11.16-1.2-25.49,2.39-34.86-3.6Z" style="fill:#d39f3f"/><path d="M729.37,1042.89c4.48-5.86,13.77-4.69,15.63-11.36C736.87,1030.15,727.79,1036,729.37,1042.89Z" style="fill:#d39f3f"/><path d="M854.69,830.45c-.62-16.25-17.07-27.2-25.81-40.62l0-.14c-17.21,19.69-38.79,40.62-55.07,59.55,1,2.65,4.06,5.51,4.48,4.47,4.47-5.5,1-19.27,13.21-16.45,12,4.06,22.55,2.86,35.73,4.48,7.3,4.06,8.33,12.8,15,16.45,2.86,3.23-1,6.3-2.65,8.74a18.11,18.11,0,0,1,3.65,4.48c3.65-3.24,8.75-7.71,15.63-5.86,6.88.42,8.74,10.16,15,11.36,2.86,3.65-1.82,7.3-4.47,8.75,1.37,6.88-6.54,9.15-3.65,15.62a8.16,8.16,0,0,0,8.74-3.65c13.77-10.15,2.86-23.4.83-35.72-5.51-11.36-17.08-13.43-26.16-21.93C849.6,836.33,851.84,832.27,854.69,830.45Z" style="fill:#d39f3f"/><path d="M680.84,798.54l.14,0v-.16Z" style="fill:#d39f3f"/><path d="M756,840.74c-3.65,3.65-5.5-.42-8.74-1.38,1-5.09,8.12-8.33,11.36-11.77a208.8,208.8,0,0,0-77.65-29l1.37,39.25,15,5.51c4.47-7.71,12.39-9.54,17.45-16,4.68-2.24,4.68,3.65,6.88,5.51,2.86,17.89-17.21,26-27.81,33.31h4.47c11.36-11.77,17.9,14.63,29.6,2.66C730.23,853.71,751.4,855.54,756,840.74Z" style="fill:#d39f3f"/><path d="M470.16,949.45c-6,1.06-10.7.82-15.94-2.35l0,.13c3.89,12.65,7.95,26.21,5.46,40.11,2.14-5.93,12.76-11.88,2.49-17.05C466.32,964.18,463.58,951.57,470.16,949.45Z" style="fill:#d39f3f"/><path d="M681.05,1231.34c13.42-5.1,32.07-4.69,44.47-6.89-7.3-7.3-18.25-6.54-21.14-17.45-5.09-7.3,2.24-15,1.83-21.13-8.7-4.25-21.55.76-27.92-7l3.58,6.18Z" style="fill:#d39f3f"/><path d="M678.19,1178.74l.1.12-.07-.12Z" style="fill:#d39f3f"/><path d="M660,1249.51l-.83,1c-77.58-2.24-148.45-31.08-203.08-85.08v.06l-40.61,42c69.25,62.16,152.13,95.68,245.34,101.54l-2.65-4.48C659,1286.34,656.74,1267,660,1249.51Z" style="fill:#d39f3f"/><path d="M694.85,1079.65c-.83,13.21,14.63,3.23,19.27,11.36,5.51-.42,5.51-5.86,7.71-10,11.36-1.82,23-8.74,29.26-17.45,1.62-3.1,3.65-10.15-1-12l0,0c-4.06,2.24-7.29,2.24-9.53,6.88-4.68,6.3-10.57-.41-15-2.65,1.37,1.83,4.68,6.3.82,8.74-4.68,5.1-9.15-2.23-13.77-3.64-2.65,16-8.33-4.48-17.21-.83-3.64-9.16-10,1.82-15.62.83-4.48,3.64-4.68,14.21-13.22,13.21-1.82,5.1-8.74,3.24-9.53,6.89,4.06,4.68,9.53,2.65,13.76,1.82C677.64,1076.58,686.38,1080.64,694.85,1079.65Z" style="fill:#d39f3f"/><path d="M364.62,872c12.81-55.08,36.56-107.22,78.82-148.25L404,685.43l-1.82-5.5c-62.3,67.8-97.48,153.51-102.16,247.13l59.55.83C357.29,909,362.39,890.72,364.62,872Z" style="fill:#d39f3f"/><path d="M442.76,1150.59c-7.3-4.69-12-13.22-19.28-19.28-9.15-1.82-15.25-10.57-17.45-18.24.41,1-1,1.82-1.82,2.65-8.33,4.06-11-6.3-16.46-9.54-5.09-2.65-1-14.21-10-10-5.09-8.33-14.63-7.71-18.24-17.45l-3.75,6c-6.54-.42-11.36-8.33-15-12.4-13.43,4.07-8.13-14.62-15.63-20.72-2.86-11.77.82-22.54,6.88-31.66,4.06-3.65,11.77-.83,13.22,1.82,6.88,2.65,2.65-5.51,6.3-6.88,9.74-8.33,14.63,3.23,20.1,9.53-8.12-23.4-13.22-50.77-12-76-18.93,2.23-40,1.62-58.86.41l.07.21c4.06,93,38.38,174.44,98.89,243.52C413.15,1178.36,428.16,1162.29,442.76,1150.59Z" style="fill:#d39f3f"/><path d="M893.83,721.51c5.09,0,3.65,5.85,6.88,8.12,16,11.36,23.41,27.43,37,39.41,5.1,12.39,18.24,20.51,18.24,35.73,18.93,37,27.81,80.2,29.85,122.67a481.16,481.16,0,0,1,58.68-2.65l-1.82-1.82c-3.44-94.81-42.22-175.52-104.16-243.49l-38.34,41.2Z" style="fill:#d39f3f"/><path d="M938.51,679.45h-.07l0,0Z" style="fill:#d39f3f"/><path d="M986.63,948.27,984,945.41l1.82,3.65a311.1,311.1,0,0,1-84.29,199.63q22,20.08,42.23,42c48.19-55.86,81.85-118.61,93.42-189.9,4.06-18.24,2.86-38,8.12-55.41C1027.41,950.5,1006.31,947.23,986.63,948.27Z" style="fill:#d39f3f"/><path d="M887.05,1161.94l-.07-.06a106.27,106.27,0,0,1-30.67,28c-38,13.22-41.3,55.42-78.82,69.46-14.63,5.85-23-13.21-36.14-16-19.69,3.24-40.2,8.75-60.3,5.51v61.34l2.65-1.83C777.94,1304.27,862.82,1267.1,929,1205,914,1190.75,898,1176.13,887.05,1161.94Z" style="fill:#d39f3f"/><path d="M458.35,708.32A297.06,297.06,0,0,1,658,623.24c-2.85-18.25-1.82-39-.82-57.69-92.59,5.27-173.24,40.2-241.87,101.54h0Z" style="fill:#d39f3f"/><path d="M526,777.51c15,9.74,27,25.19,41.23,38.38a138.55,138.55,0,0,1,91-38.38c-1.2-16.64-2.06-38.93,1-56.79l-1.82,1.37C607.08,725,565,747.29,526,777.51Z" style="fill:#d39f3f"/><path d="M511.63,791.45v.07c-12.39,15.24-24.37,32.08-33.32,49.91-14.21,26.15-18.24,56.65-24.09,86.53l24.09-.83c-4.06-4.68-3.23-11.36-3.23-17.45,5.5-11.56,7.71-32.49,25.19-31.49,8.33-1.83-.41-8.33,6.3-11.78C519,864.59,522.2,853,532.73,847.48c10-1,12-15,21.93-16C538,819.88,526.64,805.28,511.63,791.45Z" style="fill:#d39f3f"/><path d="M497,1088.8c-3.65,4.48,2.65,2.24,2.65,5.85l48.94-50.77a159.31,159.31,0,0,1-35.72-73.31l-6.3-3.65c-1,6.88-.83,17.21-6.89,19.28-3.23-2.86-9.74-4.48-9.74-10.57,1.83-4.06,5.1-1.38,8.12-1.83-.41-3.23.42-6.53.83-9.53,1-4.06-5.85-6.88-.83-10.57,4.48-.41,6.3,4.68,9.54,6.89l8.74-4.48c-2.65-8.33,2.24-21.51-.82-30.63-1.21-7.3-9.16-5.85-15.05-6.3v.07c-13.42,4.47,0,17.07-.82,25.57-1.38,6.89-8.33,1.38-12.39,4.48,1.82,11.36-7.71,13.59-15.63,15.62-2.65,7.71,5.85,11.36,1.82,18.69,9.75,10,17.46,21.93,15.63,35.73,6.88,10,5.1,24.78,6.88,37.59a31.68,31.68,0,0,1,8.75,23.75C505.09,1085.36,500,1087,497,1088.8Z" style="fill:#d39f3f"/><path d="M637.27,1093.31a98,98,0,0,0-10.47,2.17c-23.17-7.71-46.47-17.9-63.16-37.59v0a301.32,301.32,0,0,1-39.41,39.41h2.65c31.67,27.45,71.65,46.65,109.23,53-12.7-2.56-18-15.54-24.11-25.32-3.65-8.33,9.15-10.16,6.88-18.93A27.24,27.24,0,0,1,637.27,1093.31Z" style="fill:#d39f3f"/><path d="M637.27,1093.31l2.75-.48C639.08,1093,638.17,1093.12,637.27,1093.31Z" style="fill:#d39f3f"/><path d="M470.76,723.31c14.62,10.16,28.83,26.15,40.8,39.4,38.55-37.59,90.59-60.51,146.42-61.34a512.19,512.19,0,0,1,0-56.24C587.33,650.64,523.76,676.2,470.76,723.31Z" style="fill:#d39f3f"/><path d="M552.38,980.34c-.2-8.94-11.56-3.09-15.42-8.53l-.34,0,3.23,5.51c4.48,18.24,15.25,33.53,24.37,49.91l17.21-17.45c-.41-2.24.83-4.68-.82-6.3-3.24-4.48-1-12.39-5.51-15-1.38,4.06,3.24,6.3,1,9.53-5.5-2.24-11.36-4.68-14.21-11.36C563,978.31,556.82,984.41,552.38,980.34Z" style="fill:#d39f3f"/><path d="M666.21,1052.45c-.41-3.23-2.65-3.23-4.47-6.29-2.24-5.1,0-9.74.82-13.22,1.33-2.56-2.57-7.94,1.38-10-11.18,5.09-21.2-2.49-31.05-5.71-5.51-4.27-15.25-5.27-16.66-13.77v0l-35.11,39.42c20.11,15.24,43.48,27.43,69.46,31.49-.41-6.88-.41-13.77,3.24-19.28C657.47,1052.87,663,1056.14,666.21,1052.45Z" style="fill:#d39f3f"/><path d="M659.26,720.65a.17.17,0,0,0,0,.07h0Z" style="fill:#d39f3f"/><path d="M657.5,799.61h-.07C626.8,804.08,597.89,815.23,576,839c7.29,1.37,14.62,4.47,20.1,9.53,1.82,3.65-3.24,4.06-3.65,6.3,4.68,6.88,5.09-1.38,10-2.65,4.47,4.47,8.33,7.71,14.63,4.47,3.23,5.51,8.33.42,12.39.83,1.38-4.47,7.71-8.12,5.09-13.22,2.24-4.06,3.24-10.56,8.75-10.56-3.24,17.07,12.8,0,17.45,8.12C655.85,829,659.53,812,657.5,799.61Z" style="fill:#d39f3f"/><path d="M603.6,990.57,598,986.88c-1,5.1-5.1,9.16-8.13,13.22C594.93,997.86,598,990.12,603.6,990.57Z" style="fill:#d39f3f"/><path d="M470.74,723.33l0,0h0Z" style="fill:#d39f3f"/><path d="M0,147.39C.44,195,.37,242.5,1.5,292.07c.18,15.25.74,32.66,1.36,49.93,1.8,51.79,3.38,103.55,6.79,155.27,2.44,36.67,5.76,73.24,9.71,109.78q6.51,60.44,16.82,120.46c7.19,42,15.73,83.65,26.24,124.9q12.66,50,29.57,98.81a1064.93,1064.93,0,0,0,66.7,153.37,867.21,867.21,0,0,0,121,172.41A881.09,881.09,0,0,0,439,1415.08a1078.48,1078.48,0,0,0,169,93.65c19.09,8.43,38.07,17.27,57.74,24.38,2.14.75,4.44,2.48,6.46.72,2.5-2.2,5.66-2,8.44-3.16,51.8-21,102.72-43.76,151.57-71.12a976.67,976.67,0,0,0,152.39-104.79A847,847,0,0,0,1118.16,1213c52.55-70.39,93.22-147.23,124.89-229A1207.85,1207.85,0,0,0,1284.43,856Q1300,797.2,1310.8,737.2c7.57-41.38,13.13-83,19-124.67,2.21-15.67,3.27-31.44,4.76-47.18,2.63-27.88,5.46-55.83,7.58-83.8,2.07-27.45,3.91-55,4.78-82.48,1-32.9,2.83-65.77,3.83-98.66.76-24.22.41-48.46,1.67-72.69,1.31-25,1-50,1.64-75,.21-5.85-1.63-9.16-7.12-11.81q-33.75-16.32-68.35-30.7c-20.49-8.49-41.17-16.47-62.15-23.65-21.5-7.36-43-14.08-64.73-20.91-15.79-4.92-31.77-9.44-47.82-13.13-23.28-5.35-46.19-12.38-69.88-15.86-12.37-1.82-24.24-5.7-36.63-7.59-9.78-1.51-19.6-2.93-29.36-4.68-17.79-3.19-35.51-6.77-53.54-8.54-27.38-2.68-54.64-6.41-82.06-9C800.65,3.91,768.84,2.24,737,1.28,654-1.24,571.13-.61,488.51,8.5c-25.61,2.82-51.44,4.33-76.79,8.8-26.59,4.72-53.44,8.08-80,13.23-38.09,7.38-75.89,15.85-113.32,25.93-33.23,9-66.11,19.08-98.58,30.66C82.3,100.5,45.59,115.7,9.45,132.34,2.42,135.58-.13,139.55,0,147.39Zm1121.34,39.18c5.2-.84,10.15-.4,15.13-.33,2.06.07,2.94,2,4,3.38,8.18,10.12,16.26,20.31,24.43,30.43q39.16,48.57,78.36,97.11c5.87,7.29,11.65,14.66,17.65,22.23,1.36-1.65.91-3.34.92-4.84q.29-30.41.46-60.8.24-38.13.44-76.25a57.53,57.53,0,0,1,.64-10.49,112.85,112.85,0,0,1,14.48.22l-1.16,211.82c-4.43,1.39-7.2.1-10-3.34q-49.37-61.33-99-122.46c-10.17-12.58-20.21-25.27-30.32-37.91a17.4,17.4,0,0,0-1.67-1.44c-.91,53.92-.78,107.22-1.26,161a118.89,118.89,0,0,1-14,0C1119.55,391.56,1120.32,194,1121.34,186.57Zm-205.29-7,29.32,1-5.1,146a47.73,47.73,0,0,0,23.63,43.18c39.38,22.53,80.76-4.82,82.09-42.83l5-142.65,26,.91-5.16,147.91c-.92,7.71-4.48,28.91-21.81,47.35-2.73,2.89-27.66,28.53-65.79,25.63-9.15-.69-30.86-3.93-49.27-21.73-24.07-23.28-24-53.61-24-58.87Zm97.31,586.21.31.08c69.43,124.06,47.61,308.59-45,414.83-102.79,126.34-266.77,177-425.64,127.18C398.9,1264.61,285.06,1121.6,277,971c-12.57-159.85,66.52-302.38,203.91-377.2,106-60.17,266.25-61.83,372.08,2.48C917.48,630.44,981.17,698.14,1013.36,765.73ZM657.46,186.56c7.86,0,15.73.07,23.6-.1a4.59,4.59,0,0,1,4.91,3c3,6.61,6.09,13.16,9.11,19.76q30.3,66.41,60.59,132.82c.68,1.48,1.27,3,2,4.77,1.61-1.23,2.17-3,2.92-4.51q26.91-58,53.74-116.06c5.41-11.66,10.81-23.32,16-35.05,1.28-2.88,3-4,6.19-4,8.59.24,17.19.16,25.66.21,1.12,3.72.52,197.66-.52,208-2.92,1.06-23.59,1.28-30.61.23-.38-11.07,0-22.11,0-33.27,0-11.34.11-22.69.18-34q.11-16.79.19-33.59.1-17,.18-34.08.09-16.68.19-33.35l-1-.09c-2.76,6-5.48,11.94-8.25,17.89q-28.61,61.49-57.22,123-5.35,11.5-10.63,23.06c-2.32,5.09-2.26,5.12-8.62,4.45l-76.51-169c-1.25,9.26-1,18.45-1.17,27.6-.12,9.38-.12,18.76-.18,28.14s-.12,18.76-.17,28.14-.11,18.76-.16,28.15l-.16,28.13c0,9.34-.1,18.67-.15,28.23A105.19,105.19,0,0,1,653,395l1.14-207.61A4.15,4.15,0,0,1,657.46,186.56Zm-175-5.69q63.52.3,127.17.71c1.15,2.8,1.21,5.12.35,10.66-1.12,1.2-2.62.83-4,.83l-86.49-.46-7.71,0-.41,80.13c27.29.35,54.4.11,81.81.65a83.61,83.61,0,0,1,.07,11.08c-4.05.59-8,.17-11.82.22s-7.62,0-11.43-.07l-11.79-.07-11.43-.06-11.8-.08-11.43,0L512,284.27c-1.24,1-.92,2.14-.93,3.18q-.24,36.09-.43,72.18a22.45,22.45,0,0,0,.85,6c1.29,4.72,4.46,7.23,9.21,7.67,3.07.28,6.18.31,9.28.32,16.43.12,32.87.18,49.31.32,9.05.07,18.13.27,27.14.41.82,0,1.64.13,2.42.19a23.79,23.79,0,0,1-.15,10.53c-2.65.68-123.89.15-127.34-.57C480.65,381.79,481.62,185.18,482.45,180.87ZM288.57,222.76c11.49-20.35,28.16-34.79,49.66-43.82a99.23,99.23,0,0,1,42.86-7.76c19.26.76,36.18,7.29,50.13,21,7.71,7.58,13.94,16.21,19.81,25.21.13.2.25.41.37.61,2.34,4,2.22,4.31-2.27,6.7a10.36,10.36,0,0,1-3.35-3.49,172,172,0,0,0-17.3-19.95A61,61,0,0,0,403.79,186a79.49,79.49,0,0,0-27.14-3.56c-10.21.42-20.08,2.47-29.22,7.14a56.29,56.29,0,0,0-19.92,17.57A92.42,92.42,0,0,0,313,238.42c-5.55,21.14-6.49,42.57-3.85,64.15,1.69,13.84,5.9,26.95,14,38.57a63.81,63.81,0,0,0,29.39,23.47,86.38,86.38,0,0,0,36,5.87c17.09-.71,31.95-6.87,44.24-18.93a166.13,166.13,0,0,0,16.52-18.74,12,12,0,0,1,2.66-3.07c1-.36,1.53.24,2.11.61,2.61,1.71,2.91,2.28,1.28,4.86-11,17.39-24.16,32.38-43.51,41-16.94,7.55-34.51,9.55-52.7,7.36a100.51,100.51,0,0,1-31.06-8.95c-16-7.53-28.35-19.12-37.67-33.95-14.37-22.83-18.65-47.8-15.71-74.32A113,113,0,0,1,288.57,222.76ZM125.8,179.25c23.17,53.87,46.39,107.87,69.88,162.43,22.47-54.25,44.71-108,66.92-161.6l14.93.08c-29.42,69.53-58.25,138.87-87.67,208-1.85-.54-3.12-.71-4.29-.23-1.45-1.89-88.83-205-89.82-208.89Z" style="fill:#d39f3f"/></g></g></svg>