<svg xmlns="http://www.w3.org/2000/svg" width="2412.63" height="1950.76" viewBox="0 0 2412.63 1950.76"><g id="Layer_2" data-name="Layer 2"><g id="Layer_1-2" data-name="Layer 1"><g id="Wings"><path d="M2125.58,310.89c-17.93-37.89-21.74-82.37-40.65-120.26-37.45-106.1-155.17-158-252.22-190.44l60.35,60.74C1954.39,156.19,2040.42,250.7,2125.58,310.89Z" style="fill:#d39f3f"/><path d="M1832.52,0l-.15.07.34.12Z" style="fill:#d39f3f"/><path d="M2062.5,111.39l.2.06-.2-.13Z" style="fill:#d39f3f"/><path d="M2169.92,352.07c7.8,34.8,28.89,66.5,31.39,101.35C2156.81,322.55,2004.57,308,1950,184.53l16.93,72.28c42.23,140.11,209.11,174.52,272,301.57-19.55-91.62,15.52-187.54-11.8-277.83-22.64-77.46-86.13-145.89-164.38-169.1C2146.4,167.19,2140.37,269.22,2169.92,352.07Z" style="fill:#d39f3f"/><path d="M2264.44,570.32c2.08,48.51,9.83,96.44,6.55,144.78-7-19-8.68-39.58-13.47-59.51-23.53-108.27-150.5-162-201.7-252.85,7.81,30.84,13.46,61.68,24.34,91.11C2124.22,622.11,2256.9,708.78,2274.52,848c12.36-132.93,105.22-238.73,71.66-383.67-18.27-72.73-48-144.16-102.33-199.77l-.08.15C2302.07,350.33,2268.19,470.35,2264.44,570.32Z" style="fill:#d39f3f"/><path d="M2287.53,909.52c-17.75,42.63-10.46,97.27-37.74,134.64-1.72-21.65,10.28-41.75,12.14-64.65,20.31-143-103.58-228.36-131.84-349.63a419.94,419.94,0,0,0,5.45,92.47c6.53,151,105.22,274.17,76.07,431.67,28.77-36.92,50-75.2,84.44-111.13,113.69-118.29,143.74-315,80.13-466.7C2396.22,703,2319.36,798.65,2287.53,909.52Z" style="fill:#d39f3f"/><path d="M2132.8,1320.83c-1.8,4-7,6.17-9.71,2.21l12-14.89c84.48-120.83,9.67-269.85,15-405l-.67-.23c-75.88,161.68-21.88,377.26-114,531.5l15-12.64c178.19-96.73,393.08-259.9,358.63-499-3.09,32.6-13.85,61.59-28.94,89.3C2310.13,1120.09,2191,1208.27,2132.8,1320.83Z" style="fill:#d39f3f"/><path d="M2191.07,1393.47c-98.34,45.5-198.05,97.56-281.4,170l-9.7,0,5.77-7.89c143.86-94.31,105.65-278,167-413.29l-.22-.07-66.69,86.93c-89.78,123-80.17,291.64-204.67,396.45,64.24-20.46,134.85-29,200.85-42.93,149.8-37.35,307.49-184.36,329.54-337.48C2304.45,1309.22,2248,1356.27,2191.07,1393.47Z" style="fill:#d39f3f"/><path d="M1780.22,1654.35c-44.94,5.6-89.45,18.67-134.81,18.52,1.79-1.78,3-4.84,5.75-3.93,147.56-11.47,189.85-172,251.36-271.25l-.15.08c-91.22,59.17-170,160.18-252.92,224.53-45.93,34.62-100.5,44.59-154.27,60.24,118.83,9.18,217.29,65.39,341.55,57.8,133-5.32,255.15-82.38,318.05-200.15C2062.88,1649.06,1915.39,1642.4,1780.22,1654.35Z" style="fill:#d39f3f"/><path d="M2375.75,573.44l-.74-.08c.4.94.78,1.89,1.17,2.83C2376,575.27,2375.91,574.36,2375.75,573.44Z" style="fill:#d39f3f"/><path d="M341.08,265.34C442.56,195.23,469.26,80.41,567.24,8.05l.15-.08c-75.46,29.61-156.87,54.12-213,124.38-43.76,56.56-57.11,124.87-79.85,189.49Z" style="fill:#d39f3f"/><path d="M169.32,566.69C192.37,521,237,477.51,275.81,445.11c89.57-57.4,170-149.14,173.39-251.65-48,121.69-204.73,137.09-243.95,266.79H201.3c58-107.71,25.9-259.58,136.14-339.07-57.73,16.09-106.74,58.61-137.27,109.25h.07C135.77,324.45,187.59,455,169.32,566.69Z" style="fill:#d39f3f"/><path d="M347.92,412.21c-52.53,94.07-177,148.21-200.28,259.54,0,18.06-5.86,35.65-9.86,52.8l-3.95-4,6.43-72.21c22.05-128.49-52.89-261.69,13.87-371.09l.23-.75c-46,54.55-77,120-93.14,190.2C29.94,612.35,117.11,724.93,136.08,858,162.13,691.2,338.11,586.55,347.92,412.21Z" style="fill:#d39f3f"/><path d="M23.49,902.36C50,1004.67,147.1,1076.24,197.4,1164.82c-8.68-37-6.74-84.12-1.4-121.93,33.48-132,86.27-259.38,78.75-405.65-20.18,104.39-114.59,179.23-126,287.61-7.15,44.45,3.68,88.06,9.3,127.25-10.09-19.88-19.71-42.75-21.42-68.34-15-141.65-129.29-246.7-104.46-400.48C-8.91,678.14-7,803.36,23.49,902.36Z" style="fill:#d39f3f"/><path d="M373,1438.47c-88.89-154.36-40.62-364.25-112.33-525.65,9.53,52.41-7.33,98.17-15.39,145.67-27.15,91-14.28,197.69,38.68,272.18-17.58-8.87-28.56-29.2-39.4-47.66C179.3,1156.85,14,1085.06.41,934c-1.07,54.61-1.25,112.29,15.3,161.59C61,1264.81,247.32,1352.56,373,1438.47Z" style="fill:#d39f3f"/><path d="M517.6,1505.86c-44.07-124.74-83.27-253.95-181.14-355.45l-.3-.07L358.88,1209c21.59,131.25,31.72,276.18,150.76,359.76l-1.79,1.78c-38.75-16.83-68.12-49.09-102.75-70.76-112.06-73-266.93-105.32-329.76-245.42,17.29,102.28,86.53,194.28,170,256.77,100.07,88.82,240.15,82.25,362.85,118.31C563.43,1594.5,538,1554.8,517.6,1505.86Z" style="fill:#d39f3f"/><path d="M915.25,1684.87C740.53,1676.4,646,1484.56,504.5,1402.7l-.29-.07c60.5,71.52,62.89,165.84,147.24,224.54,32.51,28.75,76,34.12,112.14,49.23-40.53,3.83-77.41-12.93-117.84-15.3-136-17.15-291.9,0-391.38-111.31C299,1629.18,379,1698.15,462.51,1725.21,620.35,1786,764.19,1697.52,915.25,1684.87Z" style="fill:#d39f3f"/><path d="M32.28,582.74l-.09.54c.08-.18.16-.36.23-.54Z" style="fill:#d39f3f"/><path d="M1651.76,1777.26l.07-.75c-134.85-62.06-291.47-131.66-450.14-73.67-79.6-26.22-184.36-26.55-264.13-.84-139.36,63-329.79,157.87-476.51,51.3,27.65,33.15,57.52,49.06,89.15,72.51,94.87,61.94,231.88,56.19,329.78,6.81,89.66-37.55,159.41-150.52,274.21-114.48-97.46,48.56-187,106.84-267.89,190.68L935,1950.76c70.89-93.19,168.14-171.23,270.51-216.72,99.3,48.82,190.22,131.79,265.24,215.22l49-41.62c-79-76.89-170.42-139.33-265.32-188.44,24.64-6.11,54.63-4.67,79.69-2,102.83,45.25,181.41,135.63,298,149.74,123.2,20.24,233.42-29.1,309.89-119.14l-58.67,30.63C1814.62,1808.59,1721.75,1800.31,1651.76,1777.26Z" style="fill:#d39f3f"/></g></g></g></svg>